<?xml version="1.0" standalone="no"?>
<!DOCTYPE svg PUBLIC "-//W3C//DTD SVG 20010904//EN"
 "http://www.w3.org/TR/2001/REC-SVG-20010904/DTD/svg10.dtd">
<svg version="1.0" xmlns="http://www.w3.org/2000/svg"
 width="993.000000pt" height="993.000000pt" viewBox="0 0 993.000000 993.000000"
 preserveAspectRatio="xMidYMid meet">
<metadata>
Created by potrace 1.11, written by Peter Selinger 2001-2013
</metadata>
<g transform="translate(0.000000,993.000000) scale(0.100000,-0.100000)"
fill="#000000" stroke="none">
<path d="M5520 9184 c-30 -8 -61 -15 -67 -16 -7 -1 -13 -5 -13 -10 0 -4 -6 -8
-14 -8 -7 0 -45 -29 -82 -65 -38 -35 -77 -65 -86 -65 -9 0 -19 -4 -22 -9 -4
-5 -26 -4 -54 3 -54 14 -96 12 -132 -6 -27 -13 -120 -107 -120 -120 0 -5 -9
-19 -20 -31 -65 -71 -193 -232 -234 -294 -94 -144 -203 -208 -331 -197 -27 2
-68 6 -90 8 -76 7 -160 -49 -223 -149 -14 -22 -61 -93 -104 -159 -43 -65 -78
-120 -78 -121 0 -2 -26 -43 -58 -91 -33 -49 -94 -143 -137 -209 -85 -131 -129
-199 -287 -440 -128 -196 -213 -326 -306 -470 -39 -60 -75 -114 -80 -120 -4
-5 -11 -17 -15 -25 -5 -12 -213 -331 -267 -410 -5 -8 -39 -60 -75 -115 -77
-120 -93 -141 -125 -172 -29 -28 -80 -57 -80 -46 0 5 -4 3 -8 -3 -4 -7 -50
-13 -109 -16 -62 -3 -108 -10 -118 -18 -8 -7 -15 -9 -15 -6 0 13 -95 -49 -131
-85 -56 -56 -92 -115 -229 -374 -29 -55 -65 -122 -80 -150 -15 -27 -49 -90
-75 -140 -26 -49 -60 -112 -75 -140 -28 -50 -68 -125 -155 -290 -26 -49 -51
-94 -55 -100 -4 -5 -31 -55 -60 -110 -29 -55 -63 -118 -75 -140 -13 -22 -37
-67 -54 -100 -18 -33 -43 -80 -57 -105 -14 -25 -48 -88 -75 -140 -28 -52 -54
-99 -58 -105 -4 -5 -35 -62 -69 -125 -33 -63 -81 -151 -105 -195 -25 -44 -62
-114 -83 -155 -22 -41 -41 -77 -44 -80 -3 -3 -12 -18 -21 -35 -79 -148 -108
-200 -143 -265 -23 -41 -48 -89 -56 -105 -8 -17 -17 -32 -20 -35 -4 -3 -19
-30 -34 -60 -16 -30 -83 -154 -149 -275 -104 -192 -227 -430 -227 -441 0 -2
2221 -4 4935 -4 l4934 0 -28 53 c-15 28 -72 138 -126 242 -54 105 -101 195
-105 200 -4 6 -38 69 -75 140 -37 72 -71 135 -75 140 -4 6 -36 64 -70 130 -35
66 -74 140 -88 165 -13 25 -49 92 -79 150 -31 58 -71 131 -89 163 -19 32 -34
60 -34 62 0 2 -26 53 -59 112 -32 59 -84 158 -116 218 -79 149 -105 198 -147
275 -19 36 -59 110 -88 165 -29 55 -60 114 -70 130 -10 17 -40 73 -67 125 -28
52 -62 115 -75 140 -25 45 -85 156 -161 300 -22 41 -52 98 -67 125 -27 49 -44
81 -145 270 -46 86 -70 131 -134 248 -28 52 -74 138 -152 285 -23 42 -49 91
-59 107 -9 17 -39 71 -65 120 -27 50 -62 115 -78 145 -17 30 -47 87 -67 125
-80 152 -136 243 -182 296 -77 89 -94 105 -183 162 -72 46 -173 128 -227 185
-48 51 -156 195 -166 222 -3 8 -8 17 -11 20 -22 18 -127 278 -146 360 -2 8
-10 44 -19 80 -16 67 -21 97 -31 165 -9 58 -54 326 -60 355 -3 14 -7 36 -10
50 -5 25 -72 322 -79 350 -2 8 -9 33 -15 55 -6 22 -12 49 -14 60 -2 11 -7 31
-10 45 -10 39 -68 283 -73 305 -12 64 -17 81 -25 90 -8 11 -152 11 -169 0 -6
-3 -10 -3 -10 2 0 6 -96 7 -295 2 -5 0 -65 2 -132 4 -80 2 -123 0 -123 -7 0
-6 -5 -5 -12 2 -14 14 -8 14 -78 -4z"/>
</g>
</svg>
